<?xml version="1.0" standalone="no"?>
<!DOCTYPE svg PUBLIC "-//W3C//DTD SVG 20010904//EN"
 "http://www.w3.org/TR/2001/REC-SVG-20010904/DTD/svg10.dtd">
<svg version="1.0" xmlns="http://www.w3.org/2000/svg"
 width="100.000000pt" height="100.000000pt" viewBox="0 0 100.000000 100.000000"
 preserveAspectRatio="xMidYMid meet">

<g transform="translate(0.000000,100.000000) scale(0.100000,-0.100000)"
fill="#000000" stroke="none">
<path d="M430 951 c-103 -34 -175 -118 -187 -220 -8 -66 11 -138 63 -250 42
-89 180 -311 194 -311 14 0 152 222 194 311 52 112 71 184 63 250 -10 85 -64
161 -142 201 -43 22 -144 33 -185 19z m169 -57 c59 -30 106 -91 117 -153 11
-54 -11 -143 -59 -244 -42 -89 -145 -257 -157 -257 -10 0 -106 153 -148 236
-81 160 -90 253 -36 341 21 34 44 55 83 75 70 37 129 37 200 2z"/>
<path d="M451 786 c-87 -48 -50 -186 49 -186 51 0 100 49 100 99 0 75 -83 124
-149 87z m89 -46 c11 -11 20 -29 20 -40 0 -26 -34 -60 -60 -60 -26 0 -60 34
-60 60 0 11 9 29 20 40 11 11 29 20 40 20 11 0 29 -9 40 -20z"/>
<path d="M89 202 l-56 -157 234 -3 c128 -1 338 -1 466 0 l234 3 -56 157 -56
158 -77 0 c-67 0 -79 -3 -88 -20 -10 -19 -8 -20 63 -20 l73 0 38 -106 c20 -58
40 -112 43 -120 4 -12 -54 -14 -407 -14 -353 0 -411 2 -407 14 3 8 23 62 43
120 l38 106 73 0 c71 0 73 1 63 20 -9 17 -21 20 -88 20 l-77 0 -56 -158z"/>
</g>
</svg>
