<?xml version="1.0" standalone="no"?>
<!DOCTYPE svg PUBLIC "-//W3C//DTD SVG 20010904//EN"
 "http://www.w3.org/TR/2001/REC-SVG-20010904/DTD/svg10.dtd">
<svg version="1.0" xmlns="http://www.w3.org/2000/svg"
 width="65.000000pt" height="65.000000pt" viewBox="0 0 65.000000 65.000000"
 preserveAspectRatio="xMidYMid meet">

<g transform="translate(0.000000,65.000000) scale(0.100000,-0.100000)"
fill="#000000" stroke="none">
<path d="M291 540 c-56 -13 -113 -61 -144 -120 -25 -48 -28 -64 -25 -121 6
-107 64 -174 169 -193 43 -8 133 10 149 29 18 22 -3 25 -56 9 -125 -38 -234
39 -234 165 0 188 228 279 327 131 44 -64 19 -191 -38 -198 -35 -4 -41 14 -29
96 13 91 12 102 -5 102 -8 0 -15 -7 -15 -16 0 -14 -2 -14 -22 0 -31 22 -70 20
-102 -5 -74 -58 -74 -155 -1 -195 31 -16 36 -17 74 -2 34 14 42 14 52 2 15
-18 59 -18 85 1 54 37 70 146 33 222 -35 71 -133 114 -218 93z m71 -147 c37
-34 17 -123 -34 -144 -25 -10 -33 -9 -56 8 -22 17 -27 28 -26 64 2 70 70 113
116 72z"/>
</g>
</svg>
