<?xml version="1.0" standalone="no"?>
<!DOCTYPE svg PUBLIC "-//W3C//DTD SVG 20010904//EN"
 "http://www.w3.org/TR/2001/REC-SVG-20010904/DTD/svg10.dtd">
<svg version="1.0" xmlns="http://www.w3.org/2000/svg"
 width="100.000000pt" height="100.000000pt" viewBox="0 0 100.000000 100.000000"
 preserveAspectRatio="xMidYMid meet">

<g transform="translate(0.000000,100.000000) scale(0.100000,-0.100000)"
fill="#000000" stroke="none">
<path d="M185 921 c-51 -31 -125 -117 -125 -146 0 -49 42 -151 98 -235 73
-112 270 -309 382 -382 84 -56 186 -98 235 -98 29 0 127 86 151 132 27 53 20
63 -91 138 -57 38 -112 70 -122 70 -10 0 -40 -11 -66 -26 -26 -14 -56 -23 -66
-19 -22 7 -231 218 -231 234 0 6 11 34 25 61 14 27 25 56 25 65 0 9 -32 63
-70 120 -77 114 -88 121 -145 86z m115 -111 c33 -49 60 -93 60 -98 0 -5 -14
-34 -31 -66 -30 -55 -30 -57 -13 -84 22 -35 211 -224 246 -246 27 -17 29 -17
84 13 32 17 61 31 66 31 14 0 188 -119 188 -129 0 -14 -71 -99 -97 -116 -73
-48 -261 62 -463 272 -163 168 -258 332 -234 401 9 25 105 112 124 112 5 0 37
-40 70 -90z"/>
<path d="M500 883 c0 -17 9 -22 48 -27 66 -9 149 -50 201 -99 51 -49 98 -142
107 -209 5 -39 10 -48 27 -48 18 0 19 4 13 53 -9 74 -66 186 -122 236 -55 52
-151 98 -221 107 -49 6 -53 5 -53 -13z"/>
<path d="M500 772 c0 -15 13 -22 54 -31 95 -21 166 -92 187 -187 9 -41 16 -54
31 -54 22 0 23 20 2 90 -22 75 -109 162 -184 184 -70 21 -90 20 -90 -2z"/>
<path d="M500 661 c0 -12 9 -20 29 -24 42 -9 89 -53 102 -98 9 -27 18 -39 31
-39 23 0 23 23 -1 75 -22 48 -44 69 -94 90 -48 20 -67 19 -67 -4z"/>
</g>
</svg>
